<?xml version="1.0" encoding="utf-8"?>
<!-- Generator: Adobe Illustrator 19.0.0, SVG Export Plug-In . SVG Version: 6.00 Build 0)  -->
<svg version="1.1" id="Layer_1" xmlns="http://www.w3.org/2000/svg" xmlns:xlink="http://www.w3.org/1999/xlink" x="0px" y="0px"
	 viewBox="0 0 1920 1080" style="enable-background:new 0 0 1920 1080;" xml:space="preserve">
<style type="text/css">
	.st0{display:none;fill:#E86060;}
	.st1{fill:#E86060;}
</style>
<path id="XMLID_1_" class="st0" d="M445.8,1c0,0,6.1,186.5,196.1,160.5s212.1,111.8,212.1,111.8s12,113.9,120,125.9
	s214,163.9,74,315.9s100,326,210,178s335.5-70,379.5,32s165.5,146,282.5,50V1H445.8z"/>
<path id="XMLID_2_" class="st0" d="M407.5,0c0,0,29.8,130.5,173.4,146.3s166.4,122.6,166.4,122.6S757.8,424.8,894.4,430
	c136.6,5.3,280.3,136.6,269.7,306.5c-7.7,124.8,230.2,338.3,484.4,268.9C1740.5,980.3,1920,0,1920,0H407.5z"/>
<path id="XMLID_9_" class="st1" d="M1920,2v850.9c-78.9-21.3-175.8-10.4-294.4,54.1c-257.8,140-413,116-503.8,57
	c-64.3-41.8-104.4-107.7-108.1-177.4c-0.8-14.5-0.5-29,0.1-43.6c2.6-65.7,3.9-140.9-50.3-193c-14.1-13.6-31.6-24.2-51.1-31
	c-2.7-0.9-5.4-1.8-8.2-2.6c-40.9-11.8-84.6-7.3-126.9-9c-92.3-3.7-176.5-49.8-210.9-138.7c-0.8-2.1-1.6-4.1-2.3-6.2
	c-12.9-36.2-22-73.4-41-107.2c-15.4-27.4-35.4-53.8-62.6-73.4c-14.8-10.7-31.3-18.6-49.4-24.1c-19.3-5.9-39.9-6.6-60.1-7.4
	c-16.2-0.7-32.6-1.5-48.3-5.2c-16-3.8-31.3-9.8-45.5-17.4c-26.7-14.2-48.8-34.1-66.3-56.6c-13.1-16.8-23.8-35.1-32.1-54.1
	c-2.2-5-4.2-10.1-5.9-15.2H1920z"/>
</svg>
