<?xml version="1.0" standalone="no"?>
<!DOCTYPE svg PUBLIC "-//W3C//DTD SVG 20010904//EN"
 "http://www.w3.org/TR/2001/REC-SVG-20010904/DTD/svg10.dtd">
<svg version="1.0" xmlns="http://www.w3.org/2000/svg"
 width="1920.000000pt" height="556.000000pt" viewBox="0 0 1920.000000 556.000000"
 preserveAspectRatio="xMidYMid meet">
<metadata>
Created by potrace 1.16, written by Peter Selinger 2001-2019
</metadata>
<g transform="translate(0.000000,556.000000) scale(0.100000,-0.100000)"
fill="#000000" stroke="none">
<path d="M5695 5553 c-528 -35 -955 -115 -1978 -373 -871 -219 -1092 -267
-1472 -324 -694 -103 -1367 -97 -2076 20 -82 13 -154 24 -159 24 -7 0 -10
-833 -10 -2389 l0 -2388 168 -26 c783 -122 1405 -126 2142 -11 305 47 651 124
1388 310 1215 305 1596 370 2252 381 344 6 534 -3 835 -38 411 -47 709 -106
1575 -309 872 -204 1255 -273 1785 -322 216 -20 941 -17 1175 5 402 38 774 93
1462 216 1167 210 1658 264 2393 264 590 0 902 -25 2065 -162 728 -86 1216
-131 1590 -146 80 -3 196 -8 258 -11 l112 -6 0 2391 c0 1906 -3 2391 -12 2391
-7 0 -121 5 -253 10 -480 20 -946 61 -1652 146 -1174 140 -1524 167 -2118 167
-708 0 -1237 -57 -2293 -248 -1105 -199 -1464 -243 -2058 -252 -769 -12 -1262
56 -2459 338 -977 231 -1367 301 -1890 339 -127 9 -647 11 -770 3z"/>
</g>
</svg>
